:SAMPLES-PER-SECOND 30
:FULLY-SPECIFIED
:DEGREES
154
root  -17.6663 34.7489 -14.4134 -175.44 12.7193 -179.384
RightUpLeg  -5.37176 -5.17885 -2.31383
RightLeg  5.15 -0.866317 -0.0211214
RightFoot  6.58756 0.0267694 0.0726273
RightToes  -29.2155 -0.138556 -0.246476
Spine  -3.44319 -0.585958 -0.545059
Spine1  -6.41346 -0.884051 -0.29661
HEad  -68.1774 -35.8147 6.3061
LeftShoulder1  -1.94126e-019 -3.10601e-018 -2.51263e-017
LeftArm  6.54639 -19.9675 -77.0142
LeftForeArm  164.406 -56.9794 -164.003
LeftHand  -1.00176 -0.557194 19.5844
RightShoulder  -4.96962e-017 0 -2.36833e-017
RightArm  13.2072 21.2514 81.8429
RightForeArm  -174.397 60.6357 163.726
RightHand  0.462001 -6.75215 -37.3517
LeftUpLeg  -4.30519 6.51174 3.28338
LeftLeg  12.8431 19.3879 3.06274
LeftFoot  1.769 -0.0103758 0.833656
LeftToes  -19.5655 1.7763e-006 6.54387e-008
155
root  -17.7658 34.7724 -14.4174 -175.571 8.75026 -179.824
RightUpLeg  -4.58544 -7.77383 -2.89364
RightLeg  4.96883 -2.16156 -0.0473331
RightFoot  6.26505 0.0327461 -0.0569243
RightToes  -28.7044 -0.135102 -0.242861
Spine  -3.42813 -0.066542 -0.684235
Spine1  -6.42386 0.14393 -0.576665
HEad  -66.2086 -28.6398 5.52187
LeftShoulder1  -1.94126e-019 -3.10601e-018 -2.51263e-017
LeftArm  16.8518 -20.7745 -78.5343
LeftForeArm  164.22 -56.54 -164.238
LeftHand  -0.762469 1.53821 22.8512
RightShoulder  -4.96962e-017 0 -2.36833e-017
RightArm  22.6948 23.4526 82.2887
RightForeArm  -175.366 64.0779 161.16
RightHand  0.146329 -5.80436 -37.5104
LeftUpLeg  -4.5597 3.61266 2.79518
LeftLeg  11.9487 18.4323 2.62868
LeftFoot  2.27851 -0.0160325 0.967781
LeftToes  -18.9554 1.7763e-006 6.54387e-008
156
root  -17.8552 34.7776 -14.3907 -175.735 4.58145 179.774
RightUpLeg  -3.84534 -10.5226 -3.46364
RightLeg  5.09776 -3.49889 -0.0849724
RightFoot  5.79747 0.0366453 -0.175512
RightToes  -28.1411 -0.131078 -0.240267
Spine  -3.22601 0.523064 -0.847252
Spine1  -6.0113 1.32108 -0.980438
HEad  -65.3714 -21.5358 5.99188
LeftShoulder1  -1.94126e-019 -3.10601e-018 -2.51263e-017
LeftArm  12.102 -18.2136 -78.4436
LeftForeArm  165.931 -55.5994 -164.893
LeftHand  -1.4366 -3.48662 18.9127
RightShoulder  -4.96962e-017 0 -2.36833e-017
RightArm  20.5705 23.0803 81.1504
RightForeArm  -168.355 62.5946 162.935
RightHand  -0.382675 -4.1121 -34.188
LeftUpLeg  -4.99737 0.844592 2.40297
LeftLeg  11.491 17.1136 2.30951
LeftFoot  2.74658 -0.0213211 1.04482
LeftToes  -19.1337 1.7763e-006 6.54387e-008
157
root  -17.9338 34.7756 -14.3328 -175.898 0.0393829 179.401
RightUpLeg  -3.13584 -13.3551 -4.02991
RightLeg  5.50869 -5.05548 -0.159187
RightFoot  5.20478 0.0379697 -0.279703
RightToes  -27.5902 -0.127684 -0.238078
Spine  -3.11487 1.04006 -1.02383
Spine1  -5.75101 2.377 -1.40669
HEad  -64.7848 -15.1327 7.09428
LeftShoulder1  -1.94126e-019 -3.10601e-018 -2.51263e-017
LeftArm  7.3291 -18.1951 -78.4156
LeftForeArm  167.797 -55.8211 -164.918
LeftHand  -1.21523 -2.12115 18.876
RightShoulder  -4.96962e-017 0 -2.36833e-017
RightArm  15.7136 23.185 80.5572
RightForeArm  -167.687 61.5766 163.69
RightHand  -1.06219 -1.31794 -29.8103
LeftUpLeg  -5.70928 -2.14888 2.07047
LeftLeg  11.5064 15.629 2.11867
LeftFoot  3.1062 -0.0243959 1.06132
LeftToes  -19.0906 1.7763e-006 6.54387e-008
158
root  -18.0014 34.7666 -14.2647 -176.009 -4.77948 179.026
RightUpLeg  -2.46541 -16.3986 -4.65536
RightLeg  6.11652 -6.73499 -0.283318
RightFoot  4.84669 0.0404011 -0.390397
RightToes  -28.4703 -0.126086 -0.236149
Spine  -3.13198 1.36999 -1.19007
Spine1  -5.79018 3.04209 -1.79932
HEad  -63.624 -9.40669 8.39901
LeftShoulder1  -1.94126e-019 -3.10601e-018 -2.51263e-017
LeftArm  1.50613 -17.6643 -77.1702
LeftForeArm  161.239 -55.9227 -164.331
LeftHand  -0.989951 -0.436624 19.7459
RightShoulder  -4.96962e-017 0 -2.36833e-017
RightArm  11.2935 22.6805 79.9894
RightForeArm  -168.675 61.2056 163.851
RightHand  -0.793873 -2.62579 -32.6962
LeftUpLeg  -6.63385 -5.0753 1.78742
LeftLeg  11.8372 13.7866 1.95431
LeftFoot  3.49752 -0.0268639 1.04143
LeftToes  -19.5085 1.7763e-006 6.54387e-008
159
root  -18.0465 34.7578 -14.1962 -175.994 -9.41756 178.727
RightUpLeg  -1.91858 -18.9518 -5.12332
RightLeg  6.81074 -8.64097 -0.467439
RightFoot  4.24374 0.0381821 -0.457591
RightToes  -27.9909 -0.12543 -0.234335
Spine  -3.12566 1.67985 -1.30852
Spine1  -5.80623 3.66371 -2.08304
HEad  -62.2297 -4.89781 8.78997
LeftShoulder1  -1.94126e-019 -3.10601e-018 -2.51263e-017
LeftArm  -1.07855 -17.6939 -75.8231
LeftForeArm  162.845 -56.7755 -163.986
LeftHand  -0.921186 0.470134 21.681
RightShoulder  -4.96962e-017 0 -2.36833e-017
RightArm  10.0649 23.1261 80.9916
RightForeArm  -174.274 61.311 163.297
RightHand  0.294921 -6.22808 -38.2152
LeftUpLeg  -7.58951 -7.87455 1.6239
LeftLeg  12.097 12.005 1.7608
LeftFoot  3.9817 -0.0295024 1.02276
LeftToes  -20.2619 1.7763e-006 6.54387e-008
160
root  -18.078 34.7522 -14.1232 -175.862 -13.7256 178.407
RightUpLeg  -1.50382 -21.0478 -5.53205
RightLeg  7.47854 -10.6921 -0.701368
RightFoot  3.70305 0.0348284 -0.496108
RightToes  -27.2616 -0.124972 -0.23249
Spine  -3.10608 2.04361 -1.42586
Spine1  -5.80311 4.4317 -2.35087
HEad  -60.9372 -1.46614 8.82741
LeftShoulder1  -1.94126e-019 -3.10601e-018 -2.51263e-017
LeftArm  2.09103 -19.054 -75.7049
LeftForeArm  164.155 -57.4866 -163.681
LeftHand  -1.0123 -0.214288 20.9567
RightShoulder  -4.96962e-017 0 -2.36833e-017
RightArm  14.3182 24.8924 83.0447
RightForeArm  -177.623 63.0034 161.789
RightHand  0.483913 -6.79307 -37.91
LeftUpLeg  -8.44141 -11.038 1.44993
LeftLeg  12.1274 10.8967 1.60609
LeftFoot  4.53457 -0.0351886 1.05031
LeftToes  -20.8264 1.7763e-006 6.54387e-008
161
root  -18.0995 34.7486 -14.0733 -175.695 -17.3651 178.116
RightUpLeg  -1.14192 -23.2695 -5.94418
RightLeg  8.08515 -11.9346 -0.907633
RightFoot  3.28087 0.0303886 -0.476256
RightToes  -27.0223 -0.123963 -0.230747
Spine  -3.15373 2.54626 -1.57696
Spine1  -5.94303 5.4556 -2.66319
HEad  -60.1512 0.380087 9.27479
LeftShoulder1  -1.94126e-019 -3.10601e-018 -2.51263e-017
LeftArm  10.7624 -20.9638 -76.106
LeftForeArm  165.373 -57.3647 -163.854
LeftHand  -1.13558 -1.56392 19.0324
RightShoulder  -4.96962e-017 0 -2.36833e-017
RightArm  22.347 26.8402 85.0361
RightForeArm  -175.644 67.3843 158.132
RightHand  -0.273368 -4.41866 -32.1621
LeftUpLeg  -8.99934 -13.6993 1.32265
LeftLeg  11.8106 9.98561 1.41713
LeftFoot  5.1547 -0.0418065 1.09028
LeftToes  -21.3343 1.7763e-006 6.54387e-008
